<?xml version="1.0" encoding="utf-8"?>
<!-- Generator: Adobe Illustrator 15.1.0, SVG Export Plug-In . SVG Version: 6.00 Build 0)  -->
<!DOCTYPE svg PUBLIC "-//W3C//DTD SVG 1.1//EN" "http://www.w3.org/Graphics/SVG/1.1/DTD/svg11.dtd">
<svg version="1.1" id="Layer_1" xmlns="http://www.w3.org/2000/svg" xmlns:xlink="http://www.w3.org/1999/xlink" x="0px" y="0px"
	 width="231.778px" height="88.271px" viewBox="0 0 231.778 88.271" enable-background="new 0 0 231.778 88.271"
	 xml:space="preserve">
<g>
	<g>
		<g>
			<path fill="#4D4D4D" d="M89.265,77.303h-1.509v-4.131h1.509V77.303z M89.265,71.114h-1.509v-4.132h1.509V71.114z M89.265,64.919
				h-1.509v-4.126h1.509V64.919z M89.265,58.727h-1.509v-4.131h1.509V58.727z M89.265,52.532h-1.509v-4.126h1.509V52.532z
				 M89.265,46.342h-1.509v-4.129h1.509V46.342z M89.265,40.15h-1.509v-4.129h1.509V40.15z M89.265,33.955h-1.509v-4.126h1.509
				V33.955z M89.265,27.763h-1.509v-4.129h1.509V27.763z M89.265,21.571h-1.509v-4.129h1.509V21.571z M89.265,15.381h-1.509v-4.129
				h1.509V15.381z"/>
		</g>
	</g>
	<path fill="#00447C" d="M43.313,11.738c-17.648,0-31.991,14.348-31.991,31.984c0,17.646,14.343,32,31.991,32
		c17.639,0,31.986-14.354,31.986-32C75.3,26.086,60.952,11.738,43.313,11.738z M43.347,19.922c11.086,0,20.377,7.575,23.038,17.825
		c-6.496,6.532-22.624-1.751-22.624-1.751c-16.276-6.928-22.064-0.025-24.12,5.377C20.833,29.328,30.993,19.922,43.347,19.922z
		 M41.319,49.646c0,0-15.025-10.424-20.88,0.931c0,0,0.721-20.865,24.574-8.972c0,0,14.65,7.246,21.836,0.895
		C66.85,42.5,61.775,60.963,41.319,49.646z"/>
</g>
<g>
	<path fill="#16467A" d="M102.496,30.64h12.698c2.586,0,4.551,0.692,5.896,2.076c1.344,1.385,2.017,3.057,2.017,5.016
		c0,2.917-1.293,4.911-3.879,5.981c1.196,0.456,2.025,1.114,2.487,1.974c0.461,0.86,0.692,2.413,0.692,4.657
		c0,2.233,0.083,3.546,0.248,3.939c0.165,0.394,0.453,0.664,0.863,0.812v0.667h-5.793c-0.376-1.128-0.564-2.757-0.564-4.888
		c0-1.789-0.12-2.942-0.359-3.461c-0.239-0.518-0.635-0.894-1.188-1.128c-0.553-0.233-1.404-0.35-2.555-0.35h-5.417v9.827h-5.144
		V30.64z M113.792,41.697c1.378,0,2.401-0.262,3.068-0.786c0.666-0.524,1-1.407,1-2.649c0-1.025-0.311-1.831-0.931-2.418
		c-0.622-0.587-1.536-0.88-2.743-0.88h-6.545v6.733H113.792z"/>
	<path fill="#16467A" d="M147.203,46.978c0,3.088-0.857,5.435-2.572,7.041s-4.298,2.41-7.75,2.41c-3.031,0-5.446-0.771-7.246-2.316
		c-1.8-1.543-2.7-3.831-2.7-6.861V30.64h5.366v16.304c0,1.641,0.404,2.891,1.213,3.751c0.809,0.861,1.971,1.291,3.486,1.291
		c1.526,0,2.717-0.398,3.572-1.196c0.854-0.797,1.282-2,1.282-3.606V30.64h5.349V46.978z"/>
	<path fill="#16467A" d="M152.245,30.64h11.091c3.395,0,5.947,1.103,7.656,3.307c1.709,2.205,2.563,5.09,2.563,8.656
		c0,3.942-0.909,7.121-2.726,9.536c-1.818,2.416-4.384,3.623-7.699,3.623h-10.886V30.64z M157.389,51.421h5.11
		c1.8,0,3.201-0.752,4.204-2.256c1.002-1.504,1.504-3.566,1.504-6.187c0-2.7-0.461-4.711-1.384-6.033
		c-0.923-1.321-2.33-1.982-4.221-1.982h-5.212V51.421z"/>
	<path fill="#16467A" d="M179.691,55.762h-5.537l8.955-25.122h6.067l8.853,25.122h-5.708l-1.606-5.178h-9.28L179.691,55.762z
		 M182.835,46.243h6.409l-3.127-9.946h-0.068L182.835,46.243z"/>
	<path fill="#16467A" d="M204.42,48.021c0,1.242,0.458,2.23,1.376,2.965c0.917,0.734,2.23,1.102,3.939,1.102s3.01-0.276,3.905-0.829
		s1.342-1.364,1.342-2.436c0-0.638-0.23-1.19-0.692-1.658c-0.461-0.467-1.558-0.906-3.29-1.316l-4.272-0.991
		c-2.7-0.638-4.538-1.506-5.511-2.606c-0.975-1.099-1.461-2.617-1.461-4.554c0-2.267,0.806-4.121,2.418-5.563
		c1.612-1.441,4.03-2.162,7.254-2.162c3.201,0,5.631,0.809,7.289,2.427c1.658,1.618,2.492,3.515,2.504,5.691h-5.042
		c-0.114-1.23-0.593-2.167-1.436-2.812c-0.843-0.643-2.08-0.965-3.708-0.965c-1.311,0-2.367,0.271-3.17,0.812
		c-0.804,0.541-1.205,1.273-1.205,2.196c0,0.638,0.176,1.168,0.53,1.589c0.353,0.422,0.923,0.729,1.709,0.923l6.716,1.658
		c2.427,0.593,4.102,1.444,5.024,2.555c0.923,1.11,1.384,2.498,1.384,4.161c0,2.734-0.949,4.788-2.845,6.161
		c-1.897,1.373-4.247,2.059-7.05,2.059c-3.623,0-6.321-0.771-8.092-2.316c-1.772-1.543-2.658-3.574-2.658-6.092H204.42z"/>
</g>
</svg>
